<svg xmlns="http://www.w3.org/2000/svg" width="19" height="15" viewBox="0 0 19 15" fill="none">
<path d="M15.4688 13.125C15.7031 13.125 15.9375 13.3594 15.9375 13.5938V14.5312C15.9375 14.7949 15.7031 15 15.4688 15H3.28125C3.01758 15 2.8125 14.7949 2.8125 14.5312V13.5938C2.8125 13.3594 3.01758 13.125 3.28125 13.125H15.4688ZM17.3438 3.75C18.1055 3.75 18.75 4.39453 18.75 5.15625C18.75 5.94727 18.1055 6.5625 17.3438 6.5625C17.2559 6.5625 17.168 6.5625 17.1094 6.5625L15 12.1875H3.75L1.61133 6.5625C1.55273 6.5625 1.46484 6.5625 1.40625 6.5625C0.615234 6.5625 0 5.94727 0 5.15625C0 4.39453 0.615234 3.75 1.40625 3.75C2.16797 3.75 2.8125 4.39453 2.8125 5.15625C2.8125 5.39062 2.75391 5.56641 2.66602 5.74219L4.80469 7.03125C5.24414 7.29492 5.83008 7.14844 6.09375 6.67969L8.4668 2.49023C8.17383 2.25586 7.96875 1.8457 7.96875 1.40625C7.96875 0.644531 8.58398 0 9.375 0C10.1367 0 10.7812 0.644531 10.7812 1.40625C10.7812 1.8457 10.5762 2.25586 10.2539 2.49023L12.627 6.67969C12.8906 7.14844 13.4766 7.29492 13.9453 7.03125L16.0547 5.74219C15.9668 5.56641 15.9375 5.39062 15.9375 5.15625C15.9375 4.39453 16.5527 3.75 17.3438 3.75Z" fill="#FF6600"/>
</svg>