<svg xmlns="http://www.w3.org/2000/svg" width="17" height="17" viewBox="0 0 17 17" fill="none">
<path d="M15.4688 0.84375C15.8125 0.9375 16.0625 1.21875 16.0625 1.5625C16.0625 9.59375 9.5625 16.0625 1.5625 16.0625C1.1875 16.0625 0.90625 15.8438 0.8125 15.5L0.0625 12.25C0 11.9062 0.15625 11.5312 0.5 11.375L4 9.875C4.3125 9.75 4.65625 9.84375 4.875 10.0938L6.4375 12C8.875 10.8438 10.8438 8.84375 11.9688 6.46875L10.0625 4.90625C9.8125 4.6875 9.71875 4.34375 9.84375 4.03125L11.3438 0.53125C11.5 0.1875 11.875 0 12.2188 0.09375L15.4688 0.84375Z" fill="black"/>
</svg>