<svg xmlns="http://www.w3.org/2000/svg" width="11" height="11" viewBox="0 0 11 11" fill="none">
<path d="M9.68652 4.09814C9.88833 4.09814 10.0591 4.17576 10.1988 4.33099C10.354 4.4707 10.4316 4.64146 10.4316 4.84326V5.58838C10.4316 5.79018 10.354 5.9687 10.1988 6.12393C10.0591 6.26364 9.88833 6.3335 9.68652 6.3335H6.3335V9.68652C6.3335 9.88833 6.25588 10.0591 6.10065 10.1988C5.96094 10.354 5.79018 10.4316 5.58838 10.4316H4.84326C4.64146 10.4316 4.46294 10.354 4.30771 10.1988C4.168 10.0591 4.09814 9.88833 4.09814 9.68652V6.3335H0.745117C0.543315 6.3335 0.364797 6.26364 0.209564 6.12393C0.0698547 5.9687 0 5.79018 0 5.58838V4.84326C0 4.64146 0.0698547 4.4707 0.209564 4.33099C0.364797 4.17576 0.543315 4.09814 0.745117 4.09814H4.09814V0.745117C4.09814 0.543315 4.168 0.372559 4.30771 0.232849C4.46294 0.0776164 4.64146 0 4.84326 0H5.58838C5.79018 0 5.96094 0.0776164 6.10065 0.232849C6.25588 0.372559 6.3335 0.543315 6.3335 0.745117V4.09814H9.68652Z" fill="#FF6600"/>
</svg>